<?xml version="1.0" standalone="no"?>
<!DOCTYPE svg PUBLIC "-//W3C//DTD SVG 20010904//EN"
 "http://www.w3.org/TR/2001/REC-SVG-20010904/DTD/svg10.dtd">
<svg version="1.0" xmlns="http://www.w3.org/2000/svg"
 width="700.000000pt" height="700.000000pt" viewBox="0 0 700.000000 700.000000"
 preserveAspectRatio="xMidYMid meet">
<metadata>
Created by potrace 1.11, written by Peter Selinger 2001-2013
</metadata>
<g transform="translate(0.000000,700.000000) scale(0.100000,-0.100000)"
fill="#000000" stroke="none">
<path d="M1255 6985 c-314 -50 -592 -193 -820 -420 -209 -209 -341 -451 -407
-746 l-23 -104 0 -2215 0 -2215 23 -104 c133 -593 571 -1026 1172 -1157 81
-18 178 -19 2300 -19 2119 0 2219 1 2300 19 537 117 956 485 1123 987 79 235
72 8 72 2489 l0 2215 -23 104 c-46 205 -131 399 -249 564 -74 105 -235 266
-340 340 -158 113 -366 204 -573 254 -71 16 -204 17 -2275 19 -1751 2 -2216 0
-2280 -11z m4767 -2154 c35 -13 80 -43 113 -72 112 -103 156 -230 156 -450 0
-208 -44 -456 -120 -681 l-30 -88 22 -5 c51 -12 209 -25 302 -25 78 0 108 -4
135 -19 90 -48 64 -211 -45 -273 -37 -21 -50 -23 -180 -21 -77 1 -189 9 -249
18 -59 9 -109 15 -110 13 -2 -2 -29 -52 -61 -113 -134 -254 -271 -449 -440
-623 -182 -189 -320 -279 -496 -324 -153 -38 -292 -13 -400 73 -163 129 -275
478 -302 939 -2 43 -3 44 -14 20 -7 -14 -35 -86 -64 -160 -113 -292 -253 -526
-404 -675 -99 -97 -167 -143 -273 -183 -56 -22 -84 -26 -172 -26 -98 -1 -109
1 -173 31 -160 76 -273 255 -351 557 -100 382 -106 1028 -15 1686 36 263 71
335 177 366 66 20 162 15 210 -10 40 -20 67 -64 76 -117 4 -24 -8 -154 -28
-322 -55 -441 -61 -533 -61 -902 0 -306 3 -352 23 -463 87 -486 266 -545 513
-170 213 323 408 914 543 1641 42 228 64 276 145 320 92 50 230 45 285 -10 50
-49 52 -85 17 -328 -50 -351 -63 -534 -64 -895 -2 -633 48 -865 203 -948 58
-31 151 -28 222 7 101 49 250 214 382 425 56 89 176 317 176 334 0 5 -25 26
-55 47 -144 99 -243 252 -302 465 -28 102 -25 394 5 515 61 242 211 408 418
460 83 20 213 14 286 -14z m-4245 -36 c212 -34 346 -96 464 -214 117 -118 153
-210 153 -391 -1 -182 -39 -291 -123 -347 -69 -46 -171 -38 -236 18 -53 47
-61 86 -46 237 10 97 10 137 1 170 -24 92 -127 164 -279 198 -58 13 -104 15
-210 11 -197 -8 -316 -45 -405 -127 -92 -85 -128 -220 -91 -345 14 -51 28 -70
93 -136 66 -66 93 -84 192 -132 63 -30 178 -81 255 -112 492 -200 656 -333
721 -585 20 -77 14 -250 -10 -340 -58 -209 -219 -374 -457 -468 -165 -65 -395
-98 -614 -88 -312 14 -531 86 -676 223 -114 108 -161 228 -162 413 0 227 77
344 228 345 74 0 130 -26 163 -75 23 -34 24 -39 16 -145 -16 -213 -2 -269 82
-328 100 -71 227 -99 444 -100 179 0 291 21 392 75 125 67 181 153 182 283 1
71 -2 86 -29 134 -60 109 -171 177 -522 320 -410 167 -563 273 -667 462 -53
97 -69 179 -63 329 4 107 9 137 34 206 59 157 161 279 312 371 97 60 260 116
396 137 122 19 349 19 462 1z"/>
<path d="M5740 4503 c-28 -10 -72 -58 -95 -103 -33 -66 -45 -136 -45 -268 0
-132 15 -204 60 -298 34 -70 129 -173 141 -152 13 23 69 220 90 313 29 132 36
325 15 399 -23 77 -61 116 -113 115 -21 0 -45 -3 -53 -6z"/>
</g>
</svg>
