<?xml version="1.0" encoding="utf-8"?>
<!-- Generator: Adobe Illustrator 25.1.0, SVG Export Plug-In . SVG Version: 6.00 Build 0)  -->
<svg version="1.1" id="Layer_1" xmlns="http://www.w3.org/2000/svg" xmlns:xlink="http://www.w3.org/1999/xlink" x="0px" y="0px"
	 viewBox="0 0 537.3 524.5" style="enable-background:new 0 0 537.3 524.5;" xml:space="preserve">
<style type="text/css">
	.st0{fill:#FBBB00;}
	.st1{fill:#518EF8;}
	.st2{fill:#28B446;}
	.st3{fill:#F14336;}
</style>
<g>
	<path class="st0" d="M125.9,315.6l-17.8,66.5l-65.1,1.4c-39.6-70-40.4-168.4-1.9-239c0,0,58,10.6,58,10.6l25.4,57.6
		C113.1,244.8,113.6,284.1,125.9,315.6z"/>
	<path class="st1" d="M519.9,214.4c18.5,91.1-19.2,191.2-91.3,247.5l0,0l-73-3.7l-10.3-64.5c29.9-17.6,53.3-45,65.6-77.9H274V214.4
		C334.6,214.4,460.1,214.4,519.9,214.4z"/>
	<path class="st2" d="M428.7,461.8L428.7,461.8c-115.8,100.9-319.8,57.9-385.7-78.3l83-67.9c28.3,85,142,126.7,219.4,78L428.7,461.8
		z"/>
	<path class="st3" d="M431.8,65.1L348.9,133c-78.7-52.8-197.5-9.3-224.4,79.7l-83.4-68.3h0C106.1,4.3,315.4-39.7,431.8,65.1z"/>
</g>
</svg>
