<svg xmlns="http://www.w3.org/2000/svg" xmlns:xlink="http://www.w3.org/1999/xlink" viewBox="0 0 373.45 278.09"><defs><linearGradient id="Namnlös_övertoning_104" y1="139.04" x2="373.45" y2="139.04" gradientUnits="userSpaceOnUse"><stop offset="0" stop-color="#ed6f72"/><stop offset="0.33" stop-color="#ed7275"/><stop offset="0.6" stop-color="#ef7b80"/><stop offset="0.86" stop-color="#f18b91"/><stop offset="1" stop-color="#f2979e"/></linearGradient></defs><g id="Lager_1" data-name="Lager 1"><path d="M30.16,71.18A11.47,11.47,0,0,1,41.63,59.7h13.6a11.48,11.48,0,1,1,0,23H41.63A11.47,11.47,0,0,1,30.16,71.18Zm26.55,45.89h0a11.48,11.48,0,0,0-11.48-11.48H11.47A11.48,11.48,0,0,0,0,117.07H0a11.48,11.48,0,0,0,11.47,11.47H45.23A11.48,11.48,0,0,0,56.71,117.07ZM234.41,0h0A138.88,138.88,0,0,0,120.24,59.7H88.18a11.48,11.48,0,0,0,0,23h38.46a11.47,11.47,0,1,1,0,22.94H78.18a11.47,11.47,0,0,0-11.47,11.48h0a11.47,11.47,0,0,0,11.47,11.47h35.64a11.47,11.47,0,1,1,0,22.94H26.9a11.48,11.48,0,0,0,0,23H139.1a11.47,11.47,0,0,1,0,22.94H73.19a11.48,11.48,0,0,0-11.48,11.48h0a11.48,11.48,0,0,0,11.48,11.47h48.43a138.83,138.83,0,0,0,112.79,57.77h0a139,139,0,0,0,139-139h0A139,139,0,0,0,234.41,0Z" style="fill:url(#Namnlös_övertoning_104)"/></g><g id="Lager_2" data-name="Lager 2"><path d="M150.92,173.72q-7.18-4.54-7.19-13.9c0-3.3.57-5.81,1.71-7.55a5.61,5.61,0,0,1,5-2.61,6,6,0,0,1,4,1.26,4,4,0,0,1,1.53,3.23,16.22,16.22,0,0,1-.27,3.15,10.28,10.28,0,0,1-.14,1.26,12.75,12.75,0,0,0-.13,1.89q0,4.05,4.09,6t11.47,2q7.65,0,12-2.75a8.63,8.63,0,0,0,4.32-7.69,7.6,7.6,0,0,0-2-5.26,16.44,16.44,0,0,0-4.95-3.69q-3-1.48-8.36-3.64a93.5,93.5,0,0,1-11.29-5.13,23.27,23.27,0,0,1-7.46-6.61,17,17,0,0,1-3.11-10.39,19.84,19.84,0,0,1,3.47-11.51,22.34,22.34,0,0,1,10-7.82,38.78,38.78,0,0,1,15.33-2.79A36.06,36.06,0,0,1,191,103.11a19.57,19.57,0,0,1,8.77,5.89,14.77,14.77,0,0,1,3.28,9.72q0,5.66-1.71,8.54a5.51,5.51,0,0,1-5,2.88,5.57,5.57,0,0,1-3.91-1.44,4.48,4.48,0,0,1-1.57-3.42,17.12,17.12,0,0,1,.27-3.15c.18-1.79.27-2.93.27-3.41a6.24,6.24,0,0,0-3.69-5.76,19.24,19.24,0,0,0-9.18-2c-5.15,0-9.1,1-11.82,2.83a9.15,9.15,0,0,0-4.1,8,8.6,8.6,0,0,0,2.12,5.84,17.46,17.46,0,0,0,5.26,4q3.15,1.62,8.81,3.87a113.78,113.78,0,0,1,11,5,22,22,0,0,1,7.06,6.12,15.35,15.35,0,0,1,2.92,9.53q0,10.62-8,16.33t-21.54,5.71Q158.11,178.26,150.92,173.72Z" style="fill:#fff"/><path d="M324.56,139.58a3.08,3.08,0,0,1,.94,2.34,6.57,6.57,0,0,1-1.39,4.14,5.41,5.41,0,0,1-4.37,1.89A59.71,59.71,0,0,1,307,146.87a78.29,78.29,0,0,1-15.15,22.26Q283,178,274.32,178q-7.9,0-11.87-8.41T258,147.05q-5.38,15.64-12.18,23.29T231.33,178q-8.64,0-13-10.75t-4.41-28.92a200,200,0,0,1,2.34-29q.63-4.5,2.29-6.25t5.27-1.75a6.62,6.62,0,0,1,4.18,1.17c1,.78,1.48,2.22,1.48,4.31q0,.63-.18,2.43a222.18,222.18,0,0,0-2.7,31.39q0,12.06,2.07,18.62t5.58,6.57q3.15,0,7.6-6.61t8.86-19.61a204,204,0,0,0,7.46-31c.48-2.75,1.37-4.66,2.66-5.71a8.09,8.09,0,0,1,5.26-1.57,5.85,5.85,0,0,1,4.09,1.21,4.75,4.75,0,0,1,1.3,3.64,11.81,11.81,0,0,1-.17,2.25,172.86,172.86,0,0,0-2.52,29.32,147.88,147.88,0,0,0,.67,15.92c.45,4,1.32,7,2.61,9a6.23,6.23,0,0,0,5.62,3.11q4.32,0,9.62-6.52A74.26,74.26,0,0,0,297,143a22.33,22.33,0,0,1-8.28-8.86,27.26,27.26,0,0,1-2.78-12.55,29.2,29.2,0,0,1,2.2-12,16.27,16.27,0,0,1,6-7.33,15.49,15.49,0,0,1,8.5-2.43,11.14,11.14,0,0,1,9.12,4.14q3.38,4.13,3.38,11.33,0,10.17-4.41,22.57a62.89,62.89,0,0,0,10.79.81A4.28,4.28,0,0,1,324.56,139.58ZM300.68,134q3.49-10.08,3.5-16.64a11.86,11.86,0,0,0-1-5.53,3,3,0,0,0-2.7-1.76q-2.43,0-4,2.84c-1,1.88-1.53,4.57-1.53,8Q295,129.78,300.68,134Z" style="fill:#fff"/></g></svg>