<?xml version="1.0" encoding="utf-8"?>
<!-- Generator: Adobe Illustrator 25.1.0, SVG Export Plug-In . SVG Version: 6.00 Build 0)  -->
<svg version="1.1" id="Lager_1" xmlns="http://www.w3.org/2000/svg" xmlns:xlink="http://www.w3.org/1999/xlink" x="0px" y="0px"
	 viewBox="0 0 355.6 79.1" style="enable-background:new 0 0 355.6 79.1;" xml:space="preserve">
<style type="text/css">
	.st0{enable-background:new    ;}
	.st1{fill:#FFFFFF;}
</style>
<g class="st0">
	<path class="st1" d="M5,56.5c-3.4-2.1-5-5.4-5-9.7c0-2.3,0.4-4.1,1.2-5.3c0.8-1.2,2-1.8,3.5-1.8c1.1,0,2.1,0.3,2.8,0.9
		c0.7,0.6,1.1,1.3,1.1,2.3c0,0.8-0.1,1.6-0.2,2.2c0,0.2,0,0.5-0.1,0.9c-0.1,0.4-0.1,0.9-0.1,1.3c0,1.9,1,3.3,2.9,4.2
		c1.9,0.9,4.6,1.4,8,1.4c3.6,0,6.4-0.6,8.4-1.9c2-1.3,3-3.1,3-5.4c0-1.4-0.5-2.7-1.4-3.7c-0.9-1-2.1-1.9-3.5-2.6
		c-1.4-0.7-3.3-1.5-5.9-2.6c-3.2-1.3-5.9-2.5-7.9-3.6c-2-1.1-3.8-2.7-5.2-4.6c-1.4-2-2.2-4.4-2.2-7.3c0-3,0.8-5.7,2.4-8.1
		c1.6-2.4,3.9-4.2,7-5.5c3-1.3,6.6-2,10.7-2c3.1,0,5.9,0.5,8.4,1.4c2.6,0.9,4.6,2.3,6.1,4.1c1.5,1.8,2.3,4.1,2.3,6.8
		c0,2.6-0.4,4.6-1.2,6c-0.8,1.3-2,2-3.5,2c-1.1,0-2-0.3-2.7-1c-0.7-0.7-1.1-1.5-1.1-2.4c0-0.8,0.1-1.5,0.2-2.2
		c0.1-1.3,0.2-2.1,0.2-2.4c0-1.8-0.9-3.1-2.6-4c-1.7-0.9-3.9-1.4-6.4-1.4c-3.6,0-6.4,0.7-8.3,2c-1.9,1.3-2.9,3.2-2.9,5.6
		c0,1.6,0.5,3,1.5,4.1c1,1.1,2.2,2.1,3.7,2.8c1.5,0.8,3.5,1.7,6.2,2.7c3.2,1.3,5.8,2.5,7.7,3.5c1.9,1,3.6,2.5,4.9,4.3
		c1.4,1.8,2,4,2,6.7c0,5-1.9,8.8-5.6,11.4c-3.8,2.7-8.8,4-15.1,4C12.9,59.7,8.4,58.7,5,56.5z"/>
	<path class="st1" d="M91.9,40c0.6,0,1.1,0.2,1.4,0.6c0.3,0.4,0.5,1,0.5,1.7c0,1.3-0.3,2.3-0.8,3.1c-0.5,0.7-1.3,1.3-2.3,1.6
		c-1.9,0.6-4,0.9-6.2,0.9c-1.8,0-3.6-0.3-5.2-0.8c-1.2,2-2.6,4-4,6.1c-1.7,2.4-3.1,4-4.3,4.9c-1.2,0.9-2.6,1.3-4.1,1.3
		c-1.7,0-3-0.7-3.8-2c-0.9-1.3-1.4-3.4-1.6-6.4l-0.3-4.6c-1.3,3.5-2.5,6.2-3.5,8.1c-1,1.8-2.1,3.1-3.1,3.8c-1,0.7-2.2,1.1-3.6,1.1
		c-1.7,0-3.1-0.7-4.1-2c-1-1.3-1.6-3.5-1.9-6.4c-0.5-5.9-0.8-11-0.8-15.4v-2.2c0-1.4,0.4-2.4,1.1-2.9c0.7-0.5,1.8-0.8,3.2-0.8
		c1.1,0,1.9,0.2,2.4,0.7c0.5,0.5,0.8,1.3,0.8,2.4c0,4.8,0.3,11.1,0.9,18.8c2.9-6,5.5-12.3,7.9-18.8c0.5-1.3,1-2.1,1.7-2.6
		c0.7-0.4,1.4-0.7,2.4-0.7c1.1,0,1.9,0.2,2.4,0.7c0.4,0.5,0.7,1.3,0.7,2.5c0,4.8,0.3,11.1,0.9,18.8c2.5-3.7,4.4-6.7,5.7-8.9
		c-0.6-1.2-0.9-2.7-0.9-4.3c0-1.4,0.3-2.8,0.9-4.2c0.6-1.3,1.5-2.4,2.6-3.3c1.1-0.8,2.3-1.3,3.7-1.3c1.2,0,2.2,0.4,3,1.3
		c0.8,0.9,1.1,2.1,1.1,3.7c0,1.9-0.5,4.1-1.5,6.5c1.6-0.1,3.7-0.4,6.4-0.9l1.7-0.3C91.4,40,91.6,40,91.9,40z"/>
	<path class="st1" d="M90.1,56.6c-1.2-1.9-1.9-4.5-1.9-7.7c0-1.9,0.2-4.3,0.7-7.3c0.5-3,1.1-5.7,1.9-8.3c0.4-1.3,0.9-2.3,1.5-2.8
		c0.6-0.5,1.6-0.8,3-0.8c2.1,0,3.2,0.7,3.2,2.1c0,1-0.4,3.5-1.2,7.3c-1,4.6-1.5,7.7-1.5,9.4c0,1.3,0.2,2.2,0.5,2.9
		c0.3,0.7,0.9,1,1.7,1c0.8,0,1.7-0.5,2.8-1.6c1.1-1,2.6-2.7,4.5-5c0.5-0.6,1.1-0.9,1.7-0.9c0.5,0,1,0.3,1.3,0.8s0.5,1.2,0.5,2.1
		c0,1.7-0.4,3-1.2,3.9c-4.2,5.1-8,7.6-11.7,7.6C93.3,59.5,91.4,58.6,90.1,56.6z M92.6,24.5c-0.9-0.8-1.3-2-1.3-3.4
		c0-1.5,0.6-2.7,1.7-3.7c1.2-1,2.6-1.5,4.3-1.5c1.6,0,2.8,0.4,3.8,1.1c1,0.8,1.4,1.8,1.4,3.2c0,1.7-0.5,3-1.6,4
		c-1.1,1-2.5,1.5-4.3,1.5C94.8,25.7,93.5,25.3,92.6,24.5z"/>
	<path class="st1" d="M130.1,44.2c0,3.3-2.6,5-7.8,5c-1,0-2.5-0.2-4.3-0.6c0.5,2.6,1,5.5,1.4,8.7c0.4,3.2,0.5,5.8,0.5,7.8
		c0,4.5-0.7,8-2.2,10.4c-1.5,2.4-3.4,3.6-5.8,3.6c-3,0-5.2-2.1-6.5-6.4c-1.3-4.3-1.9-10.8-1.9-19.4c0-8.1,0.9-16.2,2.6-24.5
		c1.7-8.3,4.1-15.2,7.2-20.6c3-5.4,6.4-8.2,10-8.2c2,0,3.5,0.9,4.6,2.6c1.1,1.8,1.7,4.1,1.7,7.1c0,9.9-5.9,20.6-17.7,32.3
		c-0.4,4.1-0.6,7.7-0.6,10.8c0,4.3,0.1,8.8,0.4,13.3c0.3,4.6,0.8,6.8,1.4,6.8c1.3,0,1.9-2.2,1.9-6.6c0-3.3-0.2-6.4-0.7-9.5
		c-0.4-3.1-1-6.3-1.8-9.7c0-0.5,0.1-1.2,0.5-2.1c0.4-0.8,0.9-1.6,1.5-2.2c0.6-0.6,1.1-0.9,1.6-0.9c0.8,0,1.8,0,3,0.1
		c0.4,0,0.8,0.1,1.3,0.1c1.7,0,3.5-0.1,5.6-0.4c0.3,0,0.7-0.1,1.1-0.1c0.4,0,0.8-0.1,1.1-0.1C129.5,41.6,130.1,42.5,130.1,44.2z
		 M119.2,10.1c-1.1,2.6-2.2,6-3.3,10.2c-1.1,4.2-2,8.7-2.8,13.4c3.4-3.8,5.9-7.8,7.7-11.9c1.8-4.1,2.7-8,2.8-11.6
		c0-2.6-0.5-3.8-1.6-3.8C121.2,6.2,120.3,7.5,119.2,10.1z"/>
	<path class="st1" d="M155.3,45.9c0.3,0.5,0.5,1.2,0.5,2.1c0,1.7-0.4,3-1.2,3.9c-1.8,2.2-3.8,4.1-5.9,5.5c-2.1,1.4-4.6,2.1-7.4,2.1
		c-8.6,0-12.9-6-12.9-18.1c0-1.8,0.1-3.7,0.2-5.6h-2.5c-1.3,0-2.1-0.2-2.6-0.7c-0.4-0.5-0.7-1.2-0.7-2.2c0-2.4,0.9-3.5,2.8-3.5h3.6
		c0.7-4.6,1.8-8.8,3.3-12.7c1.5-3.8,3.2-6.9,5.3-9.1c2.1-2.3,4.3-3.4,6.7-3.4c1.8,0,3.2,0.8,4.2,2.3c1,1.6,1.5,3.5,1.5,5.9
		c0,6.5-2.7,12.2-8.2,17h7.1c0.7,0,1.2,0.1,1.4,0.4c0.3,0.3,0.4,0.8,0.4,1.6c0,2.9-2.4,4.3-7.1,4.3h-7.7c-0.1,2.1-0.1,3.7-0.1,4.9
		c0,4.4,0.5,7.4,1.5,9.2c1,1.8,2.7,2.6,4.9,2.6c1.8,0,3.4-0.5,4.8-1.6c1.4-1.1,3-2.7,4.9-4.9c0.5-0.6,1.1-0.9,1.7-0.9
		C154.6,45.2,155,45.4,155.3,45.9z M140.9,12.6c-0.8,1.6-1.5,3.8-2.2,6.6c-0.7,2.8-1.3,5.9-1.7,9.3c2.5-2.1,4.3-4.5,5.6-7.2
		c1.2-2.7,1.9-5.1,1.9-7.3c0-2.5-0.5-3.7-1.4-3.7C142.4,10.3,141.7,11.1,140.9,12.6z"/>
	<path class="st1" d="M232.8,32.6c0.4,0.4,0.7,1,0.7,1.6c0,1.1-0.3,2.1-1,2.9c-0.7,0.8-1.7,1.3-3.1,1.3c-3.3,0-6.3-0.2-8.9-0.8
		c-2.9,6.3-6.5,11.5-10.6,15.6c-4.1,4.1-8.2,6.2-12.3,6.2c-3.7,0-6.5-2-8.3-5.9c-1.8-3.9-2.9-9.2-3.1-15.8
		c-2.5,7.3-5.4,12.7-8.5,16.3c-3.2,3.6-6.5,5.4-10.1,5.4c-4,0-7.1-2.5-9.1-7.5c-2.1-5-3.1-11.8-3.1-20.3c0-6.2,0.5-13,1.6-20.3
		c0.3-2.1,0.8-3.6,1.6-4.4c0.8-0.8,2-1.2,3.7-1.2c1.3,0,2.2,0.3,2.9,0.8c0.7,0.5,1,1.6,1,3c0,0.3,0,0.9-0.1,1.7
		c-1.3,8.6-1.9,15.9-1.9,22c0,5.6,0.5,10,1.4,13c1,3.1,2.3,4.6,3.9,4.6c1.5,0,3.2-1.5,5.3-4.6s4.1-7.7,6.2-13.7
		c2.1-6.1,3.8-13.3,5.2-21.7c0.3-1.9,1-3.3,1.9-4c0.9-0.7,2.1-1.1,3.7-1.1c1.3,0,2.3,0.3,2.9,0.9c0.6,0.6,0.9,1.4,0.9,2.6
		c0,0.7,0,1.2-0.1,1.6c-1.2,6.8-1.8,13.7-1.8,20.5c0,4.7,0.2,8.4,0.5,11.2c0.3,2.8,0.9,4.9,1.8,6.3s2.2,2.2,3.9,2.2
		c2,0,4.3-1.5,6.7-4.6c2.5-3,4.7-6.8,6.8-11.4c-2.6-1.6-4.5-3.7-5.8-6.2c-1.3-2.5-2-5.5-2-8.8c0-3.3,0.5-6.1,1.5-8.4
		c1-2.3,2.4-4,4.2-5.1c1.8-1.1,3.8-1.7,6-1.7c2.7,0,4.8,1,6.4,2.9c1.6,1.9,2.4,4.6,2.4,7.9c0,4.7-1,10-3.1,15.8
		c2.1,0.4,4.7,0.6,7.6,0.6C231.7,32,232.4,32.2,232.8,32.6z M216.1,28.7c1.6-4.7,2.5-8.6,2.5-11.7c0-1.8-0.2-3.1-0.7-3.9
		c-0.5-0.8-1.1-1.2-1.9-1.2c-1.1,0-2.1,0.7-2.8,2s-1.1,3.2-1.1,5.6C212.1,23.7,213.4,26.8,216.1,28.7z"/>
	<path class="st1" d="M228.5,57c-0.7-1.7-1-4.4-1-8.1c0-5.5,0.8-10.6,2.3-15.6c0.4-1.2,1-2.1,1.9-2.7c0.9-0.6,2.1-0.9,3.6-0.9
		c0.8,0,1.4,0.1,1.8,0.3c0.3,0.2,0.5,0.6,0.5,1.2c0,0.7-0.3,2.2-0.9,4.5c-0.4,1.7-0.8,3.1-1,4.4c-0.3,1.3-0.5,2.8-0.6,4.7
		c1.4-3.6,2.9-6.6,4.7-8.8c1.7-2.3,3.4-3.9,5.1-4.9c1.7-1,3.2-1.4,4.6-1.4c2.7,0,4.1,1.4,4.1,4.1c0,0.5-0.2,1.9-0.6,4
		c-0.3,1.7-0.5,2.7-0.5,3.2c0,1.5,0.5,2.2,1.6,2.2c1.2,0,2.7-0.9,4.5-2.8c0.5-0.5,1.1-0.8,1.7-0.8c0.5,0,1,0.2,1.3,0.7
		c0.3,0.5,0.5,1.1,0.5,1.9c0,1.6-0.4,2.8-1.3,3.7c-1.2,1.2-2.6,2.3-4.1,3.1c-1.6,0.9-3.2,1.3-5,1.3c-2.2,0-3.9-0.6-5.1-1.7
		c-1.2-1.1-1.7-2.7-1.7-4.6c0-0.6,0.1-1.3,0.2-1.9c0.1-0.8,0.1-1.4,0.1-1.7c0-0.7-0.2-1-0.7-1c-0.6,0-1.5,0.7-2.5,2.1
		c-1,1.4-2,3.3-3.1,5.6c-1,2.3-1.8,4.7-2.5,7.3c-0.5,2-1,3.3-1.6,4s-1.6,1-2.9,1C230.2,59.5,229.1,58.7,228.5,57z"/>
	<path class="st1" d="M257.8,56.6c-1.2-1.9-1.9-4.5-1.9-7.7c0-1.9,0.2-4.3,0.7-7.3c0.5-3,1.1-5.7,1.9-8.3c0.4-1.3,0.9-2.3,1.5-2.8
		c0.6-0.5,1.6-0.8,3-0.8c2.1,0,3.2,0.7,3.2,2.1c0,1-0.4,3.5-1.2,7.3c-1,4.6-1.5,7.7-1.5,9.4c0,1.3,0.2,2.2,0.5,2.9
		c0.3,0.7,0.9,1,1.7,1c0.8,0,1.7-0.5,2.8-1.6c1.1-1,2.6-2.7,4.5-5c0.5-0.6,1.1-0.9,1.7-0.9c0.5,0,1,0.3,1.3,0.8s0.5,1.2,0.5,2.1
		c0,1.7-0.4,3-1.2,3.9c-4.2,5.1-8,7.6-11.7,7.6C261,59.5,259.1,58.6,257.8,56.6z M260.3,24.5c-0.9-0.8-1.3-2-1.3-3.4
		c0-1.5,0.6-2.7,1.7-3.7c1.2-1,2.6-1.5,4.3-1.5c1.6,0,2.8,0.4,3.8,1.1c1,0.8,1.4,1.8,1.4,3.2c0,1.7-0.5,3-1.6,4
		c-1.1,1-2.5,1.5-4.3,1.5C262.5,25.7,261.2,25.3,260.3,24.5z"/>
	<path class="st1" d="M300.9,45.9c0.3,0.5,0.5,1.2,0.5,2.1c0,1.7-0.4,3-1.2,3.9c-1.8,2.2-3.8,4.1-5.9,5.5c-2.1,1.4-4.6,2.1-7.4,2.1
		c-8.6,0-12.9-6-12.9-18.1c0-1.8,0.1-3.7,0.2-5.6h-2.5c-1.3,0-2.1-0.2-2.6-0.7c-0.4-0.5-0.7-1.2-0.7-2.2c0-2.4,0.9-3.5,2.8-3.5h3.6
		c0.7-4.6,1.8-8.8,3.3-12.7c1.5-3.8,3.2-6.9,5.3-9.1c2.1-2.3,4.3-3.4,6.7-3.4c1.8,0,3.2,0.8,4.2,2.3c1,1.6,1.5,3.5,1.5,5.9
		c0,6.5-2.7,12.2-8.2,17h7.1c0.7,0,1.2,0.1,1.4,0.4c0.3,0.3,0.4,0.8,0.4,1.6c0,2.9-2.4,4.3-7.1,4.3h-7.7c-0.1,2.1-0.1,3.7-0.1,4.9
		c0,4.4,0.5,7.4,1.5,9.2c1,1.8,2.7,2.6,4.9,2.6c1.8,0,3.4-0.5,4.8-1.6c1.4-1.1,3-2.7,4.9-4.9c0.5-0.6,1.1-0.9,1.7-0.9
		C300.2,45.2,300.6,45.4,300.9,45.9z M286.5,12.6c-0.8,1.6-1.5,3.8-2.2,6.6s-1.3,5.9-1.7,9.3c2.5-2.1,4.3-4.5,5.6-7.2
		c1.2-2.7,1.9-5.1,1.9-7.3c0-2.5-0.5-3.7-1.4-3.7C288,10.3,287.3,11.1,286.5,12.6z"/>
	<path class="st1" d="M325.7,45.9c0.3,0.5,0.5,1.2,0.5,2.1c0,1.7-0.4,3-1.2,3.9c-1.6,1.9-3.7,3.6-6.6,5.2c-2.8,1.6-5.9,2.4-9.1,2.4
		c-4.4,0-7.8-1.2-10.3-3.6c-2.4-2.4-3.7-5.7-3.7-9.8c0-2.9,0.6-5.6,1.8-8.1s2.9-4.5,5.1-6c2.2-1.5,4.6-2.2,7.3-2.2
		c2.4,0,4.4,0.7,5.9,2.2s2.2,3.4,2.2,5.9c0,2.9-1,5.4-3.1,7.5c-2.1,2.1-5.6,3.7-10.6,4.9c1,1.9,3,2.9,6,2.9c1.9,0,4-0.7,6.5-2
		c2.4-1.3,4.5-3.1,6.3-5.2c0.5-0.6,1.1-0.9,1.7-0.9C324.9,45.2,325.4,45.4,325.7,45.9z M304.6,38.7c-1.1,1.8-1.6,4-1.6,6.6v0.1
		c2.5-0.6,4.4-1.5,5.9-2.6c1.4-1.2,2.1-2.5,2.1-4.1c0-0.8-0.2-1.4-0.7-1.9c-0.4-0.5-1-0.7-1.8-0.7C307,36,305.6,36.9,304.6,38.7z"/>
	<path class="st1" d="M322.1,57c-0.7-1.7-1-4.4-1-8.1c0-5.5,0.8-10.6,2.3-15.6c0.4-1.2,1-2.1,1.9-2.7c0.9-0.6,2.1-0.9,3.6-0.9
		c0.8,0,1.4,0.1,1.8,0.3c0.3,0.2,0.5,0.6,0.5,1.2c0,0.7-0.3,2.2-0.9,4.5c-0.4,1.7-0.8,3.1-1,4.4c-0.3,1.3-0.5,2.8-0.6,4.7
		c1.4-3.6,2.9-6.6,4.7-8.8c1.7-2.3,3.4-3.9,5.1-4.9c1.7-1,3.2-1.4,4.6-1.4c2.7,0,4.1,1.4,4.1,4.1c0,0.5-0.2,1.9-0.6,4
		c-0.3,1.7-0.5,2.7-0.5,3.2c0,1.5,0.5,2.2,1.6,2.2c1.2,0,2.7-0.9,4.5-2.8c0.5-0.5,1.1-0.8,1.7-0.8c0.5,0,1,0.2,1.3,0.7
		c0.3,0.5,0.5,1.1,0.5,1.9c0,1.6-0.4,2.8-1.3,3.7c-1.2,1.2-2.6,2.3-4.1,3.1c-1.6,0.9-3.2,1.3-5,1.3c-2.2,0-3.9-0.6-5.1-1.7
		c-1.2-1.1-1.7-2.7-1.7-4.6c0-0.6,0.1-1.3,0.2-1.9c0.1-0.8,0.1-1.4,0.1-1.7c0-0.7-0.2-1-0.7-1c-0.6,0-1.5,0.7-2.5,2.1
		c-1,1.4-2,3.3-3.1,5.6c-1,2.3-1.8,4.7-2.5,7.3c-0.5,2-1,3.3-1.6,4c-0.6,0.7-1.6,1-2.9,1C323.9,59.5,322.8,58.7,322.1,57z"/>
</g>
</svg>
