<svg id="Layer_1" data-name="Layer 1" xmlns="http://www.w3.org/2000/svg" viewBox="0 0 154.98 186.84"><defs><style>.cls-1{fill:#bdbdbd;}.cls-2{fill:#60d97d;}.cls-3{fill:#fec46e;}.cls-4{fill:#6eb6fe;}.cls-5{fill:#fe6e6e;}.cls-6{fill:#ca6efe;}</style></defs><path class="cls-1" d="M152.83,82.41c-3.78-3.2-12.43-.2-17.36,4.76-2.48,2.5-1.69,3.15-7.2,14.53-3.53,7.29-6,11.47-10.54,14.66-2,1.38-4,2.76-6,2.18-3.24-.91-4.32-6.1-5.66-12.6a38.19,38.19,0,0,1-.9-13.11c.43-3.67,1.11-4.39,1.89-8.41,1.06-5.46.65-8.49.68-14,.06-10.27,1.56-10.2,2.83-28.42.32-4.55.42-7.35.43-10.15,0-7-.53-6-.62-13.7,0-3.73.07-4.8-.71-6.43-1.27-2.64-4.27-5.4-7.65-5.33-5.21.1-8.13,6.83-8.87,8.55-.68,1.57-1.31,3.62-1.55,12-.2,7.34.23,7.85.07,13.05-.23,7.3-1.1,7.19-1.84,17.1-.4,5.29-.3,7.3-1,13.45,0,0-.28,2.68-2.91,11.32-.56,1.84-1.07,3.34-2.06,3.51-1.44.24-3.16-2.46-3.86-4.46-.49-1.42-.13-2-.17-5.74,0-.56-.06-1.8-.17-4.28-.34-7.7-.73-9.5-.77-13.55,0-3.48.25-2.34.6-9.68.2-4.26.15-5.53.34-13.72.22-8.94.29-7.64.26-9.34-.12-8.19-.27-13.48-3.43-18.43C75.4,4.18,72.74,0,68.61,0a8,8,0,0,0-6.68,4.11c-.85,1.58-.78,2.94-.77,5.06,0,.5-.26,4.56-.77,12.69-.44,6.78-1,5.93-1.12,10.8-.15,5.23.5,5.44.52,11.83,0,5-.4,4.7-.43,11a100.49,100.49,0,0,0,.25,10.11c.31,3.58.64,4.65.52,7.37-.11,2.29-.33,7.22-2.23,7.72-1.49.39-3.44-2.1-4.29-3.52-1-1.72-1.13-3.07-1.62-6.68-.8-5.75-.83-4.51-1.29-8.4-.51-4.31-1.54-6.29-1.54-9.17a46.07,46.07,0,0,0-.93-6.59c-.41-2.62-.85-4.62-1.06-6.3-.45-3.53-1-3.9-1.78-9.49-.68-4.7-.26-5-1.12-10.54a40.72,40.72,0,0,0-2.48-8.06,7.83,7.83,0,0,0-1.46-2.4,6.41,6.41,0,0,0-2.92-2c-2.33-.64-4.76.73-6.08,2.15s-1.7,3.2-2.14,5.82a31.85,31.85,0,0,0-.26,6.18c0,3,0,4.56.17,6.77.4,6.92,1,8.62,1.54,15.25,0,.24.57,3.58.9,10.68.29,6.13.46,8.43.84,12.06a47.31,47.31,0,0,0,1.93,9.64c.49,2.11.37,2.64,1,5a26.29,26.29,0,0,1,.6,8.14c-.19,2.42-.58,3.08-1,3.51a3.79,3.79,0,0,1-4.37.52,3.63,3.63,0,0,1-1.37-2c-.92-2.67-2.57-5.06-3.51-7.72-1.62-4.56-1.36-3-3.86-9.68-2.37-6.36-2-6.09-3.26-8.92-2.11-4.64-2.87-4.71-3.86-8.06a39,39,0,0,0-1.88-6.25c-1.33-3.06-2.38-3.93-2.74-4.2A6.53,6.53,0,0,0,4.5,45.17c-3.36,1-4.24,5-4.36,5.57C-.12,52,0,52.83.45,55.58c.84,5,1.26,7.48,1.74,9.39.86,3.43,1.7,5.89,2.65,8.66.88,2.54,2.39,6.9,4.8,12.34,3.94,8.89,4.74,8.19,6.35,13.2a55.78,55.78,0,0,1,2.31,12.94L17.81,124a149.67,149.67,0,0,0,2.08,18.08,168.84,168.84,0,0,0,8,26.87c.4,1,.63,1.59,1,2.32a27.94,27.94,0,0,0,9.77,10.88c2.22,1.47,6.57,4.36,12.43,4.67,9.6.5,11.87-6.51,20.32-5,3.91.7,5.38,2.55,10.28,2.49a21.84,21.84,0,0,0,8.06-1.8C101,178,106.79,176,111,171.51c2.77-2.93,1.6-3,8.15-13.2,3.81-5.95,6.55-9.6,8.31-12.08a180.48,180.48,0,0,0,15.56-28.33c2.45-5.53,2.4-6.19,4.5-10.29,3.78-7.39,5.91-9.08,6.85-14C154.82,91.46,156,85.12,152.83,82.41Z"/><path class="cls-2" d="M95.45,92.62A14.62,14.62,0,0,0,105,94.14c0-.42.06-.84.11-1.28.43-3.67,1.11-4.38,1.89-8.41,1.06-5.46.65-8.49.68-14,.06-10.27,1.56-10.2,2.83-28.41.32-4.56.42-7.35.43-10.16,0-7-.53-6-.62-13.69,0-3.74.07-4.81-.71-6.43-1.27-2.64-4.27-5.4-7.65-5.34-5.21.1-8.13,6.84-8.87,8.55s-1.31,3.63-1.55,12c-.2,7.34.23,7.86.07,13.05-.23,7.3-1.1,7.19-1.84,17.1-.4,5.3-.3,7.3-1,13.46,0,0-.28,2.6-2.79,10.9A18.06,18.06,0,0,0,95.45,92.62Z"/><path class="cls-2" d="M96.07,93a12.8,12.8,0,0,0,1.87.61,14.49,14.49,0,0,0,7.1.16c0-.3,0-.59.08-.91.43-3.66,1.12-4.38,1.9-8.41,1-5.41.65-8.44.67-13.82a8.47,8.47,0,0,0-2-.79l-.26-.07a20.6,20.6,0,0,0-2.62-1.8,14.8,14.8,0,0,0-7-2.25,13,13,0,0,0-6.65,1.61c-.08,1-.18,2-.31,3.25,0,0-.29,2.68-2.92,11.31-.52,1.73-1,3.14-1.87,3.45a12.53,12.53,0,0,0,1.73,2.39,19.14,19.14,0,0,0,8.15,4.8A12.74,12.74,0,0,0,96.07,93Zm10.06-22.64.07.06-.07-.06Z"/><path class="cls-3" d="M78.47,76.15a16.27,16.27,0,0,0,1.36-1.41c0-.68-.07-1.86-.16-3.85-.35-7.7-.74-9.5-.78-13.55,0-3.48.26-2.34.6-9.68.21-4.26.15-5.53.35-13.72.21-8.94.28-7.64.25-9.34-.12-8.19-.26-13.48-3.42-18.43C75.4,4.18,72.73,0,68.61,0a8,8,0,0,0-6.69,4.11c-.85,1.58-.77,2.94-.77,5.06,0,.5-.25,4.56-.77,12.69-.43,6.78-1,5.93-1.11,10.8-.15,5.23.5,5.44.51,11.83,0,5-.39,4.7-.43,11a100.28,100.28,0,0,0,.26,10.11c.31,3.58.64,4.65.51,7.37,0,.25,0,.53,0,.84C64.06,79.28,72,82.06,78.47,76.15Z"/><path class="cls-3" d="M80,80.91c-.49-1.42-.13-2-.17-5.74,0-.56-.06-1.8-.17-4.28-.31-7-.66-9.13-.75-12.5a12.24,12.24,0,0,0-3.47-.72q-5-.29-10-.42a13.19,13.19,0,0,0-6.14,1.36c0,2.49,0,4.46.26,7,.31,3.58.64,4.65.52,7.37-.1,2.11-.3,6.45-1.82,7.51a11.25,11.25,0,0,0,5.74,1.76c3.32.09,6.64.24,10,.43a12.45,12.45,0,0,0,6.16-1.32C80.11,81.18,80.06,81.05,80,80.91Z"/><path class="cls-4" d="M51.94,70.31c-.8-5.75-.83-4.51-1.29-8.4-.51-4.31-1.54-6.29-1.54-9.18a46.13,46.13,0,0,0-.93-6.58c-.41-2.62-.85-4.63-1.06-6.3-.45-3.53-1-3.9-1.78-9.49-.68-4.7-.26-5-1.12-10.54a40.72,40.72,0,0,0-2.48-8.06,7.83,7.83,0,0,0-1.46-2.4,6.41,6.41,0,0,0-2.92-2c-2.33-.64-4.76.73-6.08,2.14s-1.7,3.21-2.14,5.83a31.72,31.72,0,0,0-.26,6.17c0,3,0,4.57.17,6.78.4,6.92,1,8.62,1.54,15.25,0,.24.57,3.58.9,10.67.29,6.14.46,8.44.84,12.07a47.31,47.31,0,0,0,1.93,9.64c.49,2.11.37,2.64,1,5A11.84,11.84,0,0,0,44,82.52a13.26,13.26,0,0,0,8.83-7A29.9,29.9,0,0,1,51.94,70.31Z"/><path class="cls-4" d="M46,87.76a44.79,44.79,0,0,0,5.69-2.13,11.94,11.94,0,0,0,5.19-5c-1.28-.51-2.64-2.29-3.3-3.42-1-1.72-1.13-3.07-1.63-6.68-.72-5.19-.81-4.7-1.16-7.42a12.58,12.58,0,0,0-10.45.3c-.34.16-.67.31-1,.45a28.35,28.35,0,0,0-4.07,1.41c-.57.26-1.11.58-1.66.88a11.75,11.75,0,0,0-1.25.46,47,47,0,0,0,1.92,9.55c.49,2.11.37,2.64,1,5a26,26,0,0,1,.6,8.14c0,.5-.09.91-.14,1.28a11.49,11.49,0,0,0,3.9-.21A32.61,32.61,0,0,0,46,87.76Z"/><path class="cls-5" d="M25.61,83.6c-1.62-4.56-1.36-3-3.86-9.68-2.37-6.36-2-6.09-3.25-8.92-2.11-4.64-2.88-4.71-3.86-8.06a40.24,40.24,0,0,0-1.89-6.25c-1.33-3.06-2.38-3.93-2.74-4.2A6.53,6.53,0,0,0,4.52,45.2c-3.36,1-4.23,5-4.35,5.57C-.1,52,0,52.86.47,55.61c.84,5,1.26,7.49,1.74,9.39.86,3.43,1.7,5.89,2.66,8.66.87,2.54,2.39,6.9,4.8,12.34a77.42,77.42,0,0,0,3.8,7.63,17.47,17.47,0,0,0,9.89-1.79,20.54,20.54,0,0,0,4.51-3.39A46.36,46.36,0,0,1,25.61,83.6Z"/><path class="cls-5" d="M31.27,93.62a2.94,2.94,0,0,1-.77-.33,3.6,3.6,0,0,1-1.38-2c-.92-2.67-2.57-5-3.51-7.72-1.5-4.23-1.39-3.19-3.37-8.38a11.66,11.66,0,0,0-7.54,1.17,25.69,25.69,0,0,1-2.58,1.27q-.91.24-1.86.42A11.6,11.6,0,0,0,6.91,79.3c.75,2,1.66,4.22,2.76,6.7C13.6,94.89,14.4,94.19,16,99.2c.33,1,.6,2,.84,3a34.53,34.53,0,0,0,9.2-3.57A13.91,13.91,0,0,0,31.27,93.62Z"/><path class="cls-6" d="M143.06,117.91c2.45-5.53,2.4-6.19,4.5-10.29,3.78-7.39,5.91-9.08,6.85-14,.41-2.15,1.62-8.48-1.58-11.19-3.78-3.2-12.43-.2-17.36,4.76-2.48,2.5-1.69,3.15-7.2,14.53-3.53,7.29-6,11.46-10.54,14.66-1.94,1.36-3.93,2.71-5.94,2.2a21.87,21.87,0,0,0,.16,4.84c.51,3.68,1.3,7,1.5,10.66.31,5.62,1.2,10.84,5.36,15a14.7,14.7,0,0,0,4.46,3.08c1.77-2.55,3.18-4.46,4.23-5.94A180.48,180.48,0,0,0,143.06,117.91Z"/></svg>