<svg id="Layer_1" data-name="Layer 1" xmlns="http://www.w3.org/2000/svg" viewBox="0 0 154.98 186.84"><defs><style>.cls-1{fill:#bdbdbd;}.cls-2{fill:#fe6e6e;}.cls-3{fill:#6eb6fe;}.cls-4{fill:#fec46e;}.cls-5{fill:#60d97d;}.cls-6{fill:#ca6efe;}</style></defs><path class="cls-1" d="M2.15,82.41c3.78-3.2,12.43-.2,17.35,4.76,2.49,2.5,1.7,3.15,7.2,14.53,3.53,7.29,6,11.47,10.55,14.66,2,1.38,4,2.76,6,2.18,3.24-.91,4.31-6.1,5.66-12.6a38.7,38.7,0,0,0,.9-13.11c-.43-3.67-1.12-4.39-1.9-8.41-1.05-5.46-.64-8.49-.67-14-.06-10.27-1.56-10.2-2.83-28.42-.32-4.55-.42-7.35-.43-10.15,0-7,.53-6,.62-13.7,0-3.73-.07-4.8.71-6.43,1.27-2.64,4.26-5.4,7.65-5.33,5.2.1,8.12,6.83,8.87,8.55.68,1.57,1.31,3.62,1.54,12,.21,7.34-.22,7.85-.06,13.05.22,7.3,1.1,7.19,1.84,17.1.4,5.29.29,7.3.94,13.45,0,0,.28,2.68,2.92,11.32.56,1.84,1.06,3.34,2,3.51,1.45.24,3.17-2.46,3.86-4.46.5-1.42.14-2,.17-5.74,0-.56.06-1.8.17-4.28.35-7.7.74-9.5.78-13.55,0-3.48-.26-2.34-.6-9.68-.21-4.26-.15-5.53-.35-13.72-.21-8.94-.28-7.64-.25-9.34.12-8.19.26-13.48,3.42-18.43C79.57,4.18,82.24,0,86.36,0a8,8,0,0,1,6.69,4.11c.85,1.58.77,2.94.77,5.06,0,.5.25,4.56.77,12.69.43,6.78,1,5.93,1.11,10.8.15,5.23-.5,5.44-.51,11.83,0,5,.39,4.7.43,11a100.28,100.28,0,0,1-.26,10.11c-.31,3.58-.64,4.65-.51,7.37.1,2.29.33,7.22,2.23,7.72,1.49.39,3.44-2.1,4.28-3.52,1-1.72,1.13-3.07,1.63-6.68.79-5.75.82-4.51,1.29-8.4.51-4.31,1.53-6.29,1.54-9.17a44.73,44.73,0,0,1,.92-6.59c.42-2.62.86-4.62,1.07-6.3.44-3.53,1-3.9,1.78-9.49.67-4.7.26-5,1.11-10.54a41.3,41.3,0,0,1,2.49-8.06,7.83,7.83,0,0,1,1.46-2.4,6.37,6.37,0,0,1,2.91-2c2.33-.64,4.76.73,6.09,2.15s1.69,3.2,2.14,5.82a33.7,33.7,0,0,1,.26,6.18c0,3,0,4.56-.17,6.77-.4,6.92-1,8.62-1.55,15.25,0,.24-.57,3.58-.9,10.68-.28,6.13-.46,8.43-.83,12.06a47.31,47.31,0,0,1-1.93,9.64c-.5,2.11-.38,2.64-1,5a26.29,26.29,0,0,0-.6,8.14c.19,2.42.58,3.08,1,3.51a3.79,3.79,0,0,0,4.37.52,3.6,3.6,0,0,0,1.38-2c.92-2.67,2.56-5.06,3.51-7.72,1.62-4.56,1.36-3,3.86-9.68,2.37-6.36,2-6.09,3.25-8.92,2.11-4.64,2.88-4.71,3.86-8.06a39.17,39.17,0,0,1,1.89-6.25c1.33-3.06,2.38-3.93,2.74-4.2a6.53,6.53,0,0,1,5.49-1.29c3.35,1,4.23,5,4.35,5.57.27,1.23.16,2.09-.3,4.84-.84,5-1.26,7.48-1.74,9.39-.86,3.43-1.7,5.89-2.66,8.66-.87,2.54-2.39,6.9-4.8,12.34-3.93,8.89-4.73,8.19-6.34,13.2a54.72,54.72,0,0,0-2.31,12.94l.49,11.88a151.71,151.71,0,0,1-2.08,18.08,168.84,168.84,0,0,1-8,26.87c-.4,1-.64,1.59-1,2.32a27.94,27.94,0,0,1-9.77,10.88c-2.21,1.47-6.56,4.36-12.43,4.67-9.6.5-11.86-6.51-20.31-5-3.92.7-5.39,2.55-10.29,2.49a21.83,21.83,0,0,1-8-1.8C54,178,48.19,176,43.93,171.51c-2.77-2.93-1.6-3-8.14-13.2-3.81-5.95-6.55-9.6-8.31-12.08A179.64,179.64,0,0,1,11.92,117.9c-2.45-5.53-2.41-6.19-4.5-10.29-3.79-7.39-5.92-9.08-6.86-14C.16,91.46-1,85.12,2.15,82.41Z"/><path class="cls-2" d="M59.53,92.62A14.63,14.63,0,0,1,50,94.14c0-.42-.06-.84-.11-1.28-.43-3.67-1.12-4.38-1.9-8.41-1.05-5.46-.64-8.49-.68-14-.05-10.27-1.55-10.2-2.82-28.41-.32-4.56-.42-7.35-.43-10.16,0-7,.53-6,.62-13.69,0-3.74-.08-4.81.71-6.43C46.63,9.16,49.62,6.4,53,6.46c5.2.1,8.12,6.84,8.87,8.55s1.31,3.63,1.54,12c.21,7.34-.22,7.86-.06,13.05.22,7.3,1.1,7.19,1.84,17.1.4,5.3.29,7.3.94,13.46,0,0,.28,2.6,2.79,10.9A18.08,18.08,0,0,1,59.53,92.62Z"/><path class="cls-2" d="M61.05,92.53a19,19,0,0,0,8.14-4.8,12.16,12.16,0,0,0,1.74-2.39c-.87-.31-1.35-1.72-1.88-3.45-2.63-8.63-2.91-11.31-2.91-11.31-.13-1.23-.23-2.29-.31-3.25a13,13,0,0,0-6.65-1.61,14.8,14.8,0,0,0-7,2.25,19.91,19.91,0,0,0-2.62,1.8l-.27.07a8.64,8.64,0,0,0-2,.79c0,5.38-.37,8.41.68,13.82.78,4,1.46,4.75,1.89,8.41,0,.32,0,.61.08.91A14.54,14.54,0,0,0,57,93.61,13.21,13.21,0,0,0,58.91,93,12.74,12.74,0,0,0,61.05,92.53ZM48.85,70.36l-.08.06.07-.06Z"/><path class="cls-3" d="M76.51,76.15a14.91,14.91,0,0,1-1.36-1.41c0-.68.07-1.86.16-3.85.34-7.7.73-9.5.77-13.55,0-3.48-.25-2.34-.6-9.68-.2-4.26-.15-5.53-.34-13.72-.22-8.94-.29-7.64-.26-9.34.12-8.19.27-13.48,3.43-18.43C79.58,4.18,82.24,0,86.37,0a8,8,0,0,1,6.68,4.11c.85,1.58.78,2.94.77,5.06,0,.5.26,4.56.77,12.69.44,6.78,1,5.93,1.12,10.8.15,5.23-.5,5.44-.52,11.83,0,5,.4,4.7.43,11a100.49,100.49,0,0,1-.25,10.11c-.31,3.58-.64,4.65-.52,7.37,0,.25,0,.53,0,.84C90.92,79.28,83,82.06,76.51,76.15Z"/><path class="cls-3" d="M75,80.91c.5-1.42.14-2,.17-5.74,0-.56.06-1.8.17-4.28.32-7,.67-9.13.76-12.5a12.24,12.24,0,0,1,3.47-.72q5-.29,10-.42a13.19,13.19,0,0,1,6.14,1.36c0,2.49,0,4.46-.27,7-.31,3.58-.64,4.65-.51,7.37.09,2.11.3,6.45,1.81,7.51a11.21,11.21,0,0,1-5.73,1.76c-3.32.09-6.64.24-10,.43a12.42,12.42,0,0,1-6.16-1.32C74.86,81.18,74.92,81.05,75,80.91Z"/><path class="cls-4" d="M103,70.31c.79-5.75.82-4.51,1.29-8.4.51-4.31,1.53-6.29,1.54-9.18a46.17,46.17,0,0,1,.92-6.58c.42-2.62.86-4.63,1.07-6.3.44-3.53,1-3.9,1.78-9.49.67-4.7.26-5,1.11-10.54a41.3,41.3,0,0,1,2.49-8.06,7.83,7.83,0,0,1,1.46-2.4,6.37,6.37,0,0,1,2.91-2c2.33-.64,4.76.73,6.09,2.14s1.69,3.21,2.14,5.83a33.57,33.57,0,0,1,.26,6.17c0,3,0,4.57-.17,6.78-.4,6.92-1,8.62-1.55,15.25,0,.24-.57,3.58-.9,10.67-.28,6.14-.46,8.44-.83,12.07a47.31,47.31,0,0,1-1.93,9.64c-.49,2.11-.38,2.64-1,5a11.84,11.84,0,0,1-8.82,1.59,13.27,13.27,0,0,1-8.84-7A28.76,28.76,0,0,0,103,70.31Z"/><path class="cls-4" d="M108.93,87.76a44.09,44.09,0,0,1-5.68-2.13,11.88,11.88,0,0,1-5.19-5c1.27-.51,2.63-2.29,3.3-3.42,1-1.72,1.13-3.07,1.63-6.68.71-5.19.81-4.7,1.16-7.42a12.58,12.58,0,0,1,10.45.3c.33.16.67.31,1,.45a28.78,28.78,0,0,1,4.07,1.41c.57.26,1.11.58,1.65.88a10.33,10.33,0,0,1,1.25.46,48.07,48.07,0,0,1-1.91,9.55c-.5,2.11-.38,2.64-1,5a26.29,26.29,0,0,0-.6,8.14c0,.5.09.91.15,1.28a11.49,11.49,0,0,1-3.9-.21A32.7,32.7,0,0,1,108.93,87.76Z"/><path class="cls-5" d="M129.37,83.6c1.62-4.56,1.36-3,3.85-9.68,2.37-6.36,2-6.09,3.26-8.92,2.11-4.64,2.88-4.71,3.86-8.06a40.1,40.1,0,0,1,1.88-6.25c1.33-3.06,2.39-3.93,2.75-4.2a6.49,6.49,0,0,1,5.48-1.29c3.36,1,4.24,5,4.36,5.57.27,1.23.16,2.09-.31,4.84-.84,5-1.26,7.49-1.73,9.39-.87,3.43-1.71,5.89-2.66,8.66-.88,2.54-2.39,6.9-4.8,12.34a74.55,74.55,0,0,1-3.81,7.63,17.48,17.48,0,0,1-9.89-1.79,20.78,20.78,0,0,1-4.51-3.39A44.49,44.49,0,0,0,129.37,83.6Z"/><path class="cls-5" d="M123.7,93.62a3,3,0,0,0,.78-.33,3.52,3.52,0,0,0,1.37-2c.93-2.67,2.57-5,3.52-7.72,1.5-4.23,1.39-3.19,3.36-8.38a11.64,11.64,0,0,1,7.54,1.17,25.85,25.85,0,0,0,2.59,1.27q.91.24,1.86.42a11.82,11.82,0,0,1,3.35,1.22c-.75,2-1.66,4.22-2.76,6.7-3.94,8.89-4.74,8.19-6.34,13.2-.34,1-.61,2-.85,3a34.66,34.66,0,0,1-9.2-3.57A13.91,13.91,0,0,1,123.7,93.62Z"/><path class="cls-6" d="M11.92,117.91c-2.45-5.53-2.41-6.19-4.5-10.29-3.79-7.39-5.92-9.08-6.86-14C.16,91.46-1,85.13,2.15,82.42c3.78-3.2,12.43-.2,17.35,4.76,2.49,2.5,1.7,3.15,7.2,14.53,3.53,7.29,6,11.46,10.55,14.66,1.93,1.36,3.92,2.71,5.94,2.2a22.5,22.5,0,0,1-.16,4.84c-.51,3.68-1.31,7-1.51,10.66-.31,5.62-1.2,10.84-5.35,15a14.74,14.74,0,0,1-4.47,3.08c-1.77-2.55-3.17-4.46-4.22-5.94A179.64,179.64,0,0,1,11.92,117.91Z"/></svg>